<?xml version="1.0" encoding="UTF-8" standalone="no"?>
<!-- Created with Inkscape (http://www.inkscape.org/) -->

<svg
   width="57.283417mm"
   height="57.283413mm"
   viewBox="0 0 57.283417 57.283413"
   version="1.1"
   id="svg209"
   inkscape:version="1.1 (c68e22c387, 2021-05-23)"
   sodipodi:docname="logo.svg"
   xmlns:inkscape="http://www.inkscape.org/namespaces/inkscape"
   xmlns:sodipodi="http://sodipodi.sourceforge.net/DTD/sodipodi-0.dtd"
   xmlns="http://www.w3.org/2000/svg"
   xmlns:svg="http://www.w3.org/2000/svg">
  <sodipodi:namedview
     id="namedview211"
     pagecolor="#505050"
     bordercolor="#eeeeee"
     borderopacity="1"
     inkscape:pageshadow="0"
     inkscape:pageopacity="0"
     inkscape:pagecheckerboard="0"
     inkscape:document-units="mm"
     showgrid="false"
     fit-margin-top="0"
     fit-margin-left="0"
     fit-margin-right="0"
     fit-margin-bottom="0"
     inkscape:zoom="0.74118967"
     inkscape:cx="-290.74879"
     inkscape:cy="93.768171"
     inkscape:window-width="1920"
     inkscape:window-height="1017"
     inkscape:window-x="-8"
     inkscape:window-y="-8"
     inkscape:window-maximized="1"
     inkscape:current-layer="layer1" />
  <defs
     id="defs206" />
  <g
     inkscape:label="Capa 1"
     inkscape:groupmode="layer"
     id="layer1"
     transform="translate(-75.77234,-123.96347)">
    <g
       id="g5159-9-2-6-82-9"
       transform="matrix(0.76545,0,0,0.76545,187.1121,133.59481)">
      <path
         sodipodi:nodetypes="cccczcczczzccc"
         inkscape:connector-curvature="0"
         id="path5082-5-1-8-7-6-17"
         d="m -116.53954,2.4864295 c 0,0 2.38604,9.7715795 2.83482,14.3630895 0.95825,7.464 -0.7312,15.93834 -2.07887,21.54465 -1.29834,3.79533 -6.23661,13.98511 -6.23661,13.98511 0,0 17.05465,-5.2908 22.300596,-6.04761 5.24595,-0.75681 8.69345,-0.18899 8.69345,-0.18899 l 3.96876,-14.3631 c 0,0 -5.63936,7.04249 -9.82739,8.50446 -4.188026,1.46197 -9.394496,3.7921 -13.607136,-0.56696 -0.84024,-3.68927 2.38293,-19.95574 1.70089,-24.75744 -0.68204,-4.8017 -2.77837,-10.4866895 -3.2128,-13.7961295 -0.43442,-3.309425 -0.18899,-5.858625 -0.18899,-5.858625 z"
         style="fill:#0064ff;fill-opacity:1;stroke:#0064ff;stroke-width:0.264583px;stroke-linecap:butt;stroke-linejoin:miter;stroke-opacity:1" />
      <g
         id="g4656-6-1-2">
        <path
           sodipodi:nodetypes="cscczcc"
           inkscape:connector-curvature="0"
           id="path4650-2-4-0"
           d="m -123.19869,47.094334 c 3.37182,-1.273985 11.89601,6.954397 11.52827,5.669643 -4.11317,-14.369808 -0.37798,-25.513392 -0.37798,-25.513392 5.53793,3.743946 21.595718,3.400084 22.299368,-10.166212 0.44191,-7.1384739 -5.050153,-12.2576406 -12.929468,-14.0725844 -7.87932,-1.8149438 -22.97704,3.8280821 -22.97704,3.8280821 12.03883,13.5528243 8.55967,34.9306853 2.45685,40.2544633 z"
           style="fill:#000000;fill-opacity:1;stroke:#000000;stroke-width:0.264583px;stroke-linecap:butt;stroke-linejoin:miter;stroke-opacity:1" />
        <path
           sodipodi:nodetypes="cczc"
           inkscape:connector-curvature="0"
           id="path4652-9-7-9"
           d="m -118.85197,10.619633 c 4.34673,9.638392 4.34673,9.449405 4.34673,9.449405 0,0 15.282995,9.589158 16.630942,-3.023809 1.347946,-12.6129666 -20.977672,-6.425596 -20.977672,-6.425596 z"
           style="fill:#ffffff;fill-opacity:1;stroke:none;stroke-width:0.264583px;stroke-linecap:butt;stroke-linejoin:miter;stroke-opacity:1" />
      </g>
      <path
         sodipodi:nodetypes="ccccszcc"
         inkscape:connector-curvature="0"
         id="path5082-5-1-8-8-8-0-0"
         d="m -116.53954,2.4864295 c 0,0 2.38604,9.7715795 2.83482,14.3630895 0.24012,1.870376 0.24717,1.86649 0.20182,3.802724 0,0 -0.26727,0.601356 4.25,2.225058 0.32725,-3.14086 0.68261,-6.363588 0.46187,-7.917662 -0.68204,-4.8017 -2.77837,-10.4866895 -3.2128,-13.7961295 -0.43442,-3.309425 -0.18899,-5.858625 -0.18899,-5.858625 z"
         style="fill:#0064ff;fill-opacity:1;stroke:#0064ff;stroke-width:0.264583px;stroke-linecap:butt;stroke-linejoin:miter;stroke-opacity:1" />
    </g>
    <ellipse
       style="fill:none;fill-rule:evenodd;stroke:#0064ff;stroke-width:0.525;stroke-miterlimit:4;stroke-dasharray:none;stroke-opacity:1"
       id="path268"
       cx="104.41405"
       cy="152.60518"
       rx="28.379208"
       ry="28.379206" />
  </g>
</svg>
