<?xml version="1.0" encoding="UTF-8" standalone="no"?>
<!-- Generator: Adobe Illustrator 18.0.0, SVG Export Plug-In . SVG Version: 6.00 Build 0)  -->

<svg
   version="1.1"
   id="Capa_1"
   x="0px"
   y="0px"
   viewBox="0 0 54.1 35.1"
   xml:space="preserve"
   sodipodi:docname="email.svg"
   width="54.099998"
   height="35.099998"
   inkscape:version="1.1 (c68e22c387, 2021-05-23)"
   xmlns:inkscape="http://www.inkscape.org/namespaces/inkscape"
   xmlns:sodipodi="http://sodipodi.sourceforge.net/DTD/sodipodi-0.dtd"
   xmlns="http://www.w3.org/2000/svg"
   xmlns:svg="http://www.w3.org/2000/svg"><defs
   id="defs45" /><sodipodi:namedview
   id="namedview43"
   pagecolor="#505050"
   bordercolor="#eeeeee"
   borderopacity="1"
   inkscape:pageshadow="0"
   inkscape:pageopacity="0"
   inkscape:pagecheckerboard="0"
   showgrid="false"
   inkscape:zoom="7.6894642"
   inkscape:cx="15.280649"
   inkscape:cy="24.123918"
   inkscape:window-width="1920"
   inkscape:window-height="1017"
   inkscape:window-x="-8"
   inkscape:window-y="-8"
   inkscape:window-maximized="1"
   inkscape:current-layer="Capa_1" />
<g
   id="g10"
   transform="translate(0.09948027,-9.5930585)">
	<path
   d="m 14.241,18.4 c 3.754,2.568 7.761,4.558 11.872,6.464 6.938,-2.519 13.185,-5.886 19.438,-9.408 2.351,-1.325 4.713,-2.664 7.107,-3.993 -2.977,-2.531 -11.679,-1.219 -14.154,-1.219 -7.089,0.01 -14.176,0 -21.275,-0.01 -2.05,-0.122 -4.19,-0.174 -6.189,0.01 h -2.144 c -1.436,0.007 -3.418,-0.117 -5.006,0.408 2.233,1.421 4.267,3.08 6.326,4.719 1.31,1.042 2.632,2.075 4.025,3.029 z"
   id="path2" />
	<path
   d="m 11.406,20.105 c -3.33,-2.417 -6.32,-5.187 -9.86,-7.298 -0.617,1.664 -0.282,3.875 -0.492,5.422 -0.009,0.061 0.011,0.112 0.011,0.163 -0.643,2.744 -0.643,5.752 -0.715,8.404 -0.073,2.57 -0.613,6.271 -0.188,9.468 -0.039,1.539 -0.054,3.155 0.283,4.508 6.607,-5.211 13.631,-10.385 20.712,-14.902 -3.385,-1.681 -6.652,-3.516 -9.751,-5.765 z"
   id="path4" />
	<path
   d="m 53.884,20.758 c 0.112,-2.091 0.399,-4.383 0.044,-6.505 -6.632,3.681 -12.99,7.452 -19.807,10.593 3.883,3.246 7.842,6.352 11.729,9.555 1.641,1.352 3.268,2.725 4.871,4.133 0.581,0.509 1.155,1.027 1.728,1.548 0.176,-0.348 0.338,-0.713 0.465,-1.12 0.715,-2.251 0.427,-4.944 0.251,-7.444 0.023,-0.549 0.049,-1.101 0.075,-1.655 0.197,-3.033 0.485,-6.057 0.644,-9.105 z"
   id="path6" />
	<path
   d="m 31.06,26.188 c -1.508,0.635 -3.035,1.249 -4.607,1.808 -0.579,0.206 -1.054,0.062 -1.38,-0.254 -0.244,-0.113 -0.488,-0.229 -0.731,-0.343 -0.094,0.099 -0.197,0.192 -0.327,0.273 -7.475,4.674 -14.955,10.161 -21.906,15.659 0.608,0.388 1.395,0.623 2.427,0.635 4.545,0.055 9.098,0.021 13.65,-0.022 7.87,0.212 15.754,0.056 23.622,0.241 3.041,0.069 6.359,-0.134 8.658,-1.776 -6.157,-5.604 -12.762,-10.553 -19.125,-15.911 -0.117,-0.098 -0.204,-0.203 -0.281,-0.31 z"
   id="path8" />
</g>
<g
   id="g12">
</g>
<g
   id="g14">
</g>
<g
   id="g16">
</g>
<g
   id="g18">
</g>
<g
   id="g20">
</g>
<g
   id="g22">
</g>
<g
   id="g24">
</g>
<g
   id="g26">
</g>
<g
   id="g28">
</g>
<g
   id="g30">
</g>
<g
   id="g32">
</g>
<g
   id="g34">
</g>
<g
   id="g36">
</g>
<g
   id="g38">
</g>
<g
   id="g40">
</g>
</svg>
