<?xml version="1.0" encoding="UTF-8" standalone="no"?>
<!-- Created with Inkscape (http://www.inkscape.org/) -->

<svg
   width="115mm"
   height="95mm"
   viewBox="0 0 115 95"
   version="1.1"
   id="svg988"
   inkscape:version="1.1 (c68e22c387, 2021-05-23)"
   sodipodi:docname="logo_mini.svg"
   xmlns:inkscape="http://www.inkscape.org/namespaces/inkscape"
   xmlns:sodipodi="http://sodipodi.sourceforge.net/DTD/sodipodi-0.dtd"
   xmlns="http://www.w3.org/2000/svg"
   xmlns:svg="http://www.w3.org/2000/svg">
  <sodipodi:namedview
     id="namedview990"
     pagecolor="#505050"
     bordercolor="#eeeeee"
     borderopacity="1"
     inkscape:pageshadow="0"
     inkscape:pageopacity="0"
     inkscape:pagecheckerboard="0"
     inkscape:document-units="mm"
     showgrid="false"
     fit-margin-top="0"
     fit-margin-left="0"
     fit-margin-right="0"
     fit-margin-bottom="0"
     inkscape:zoom="0.74118967"
     inkscape:cx="407.45306"
     inkscape:cy="427.0162"
     inkscape:window-width="1920"
     inkscape:window-height="1017"
     inkscape:window-x="-8"
     inkscape:window-y="-8"
     inkscape:window-maximized="1"
     inkscape:current-layer="layer1">
    <inkscape:grid
       type="xygrid"
       id="grid1807"
       originx="-0.29375497"
       originy="0.93730981" />
  </sodipodi:namedview>
  <defs
     id="defs985" />
  <g
     inkscape:label="Capa 1"
     inkscape:groupmode="layer"
     id="layer1"
     transform="translate(-61.022401,-35.976186)">
    <rect
       style="fill:#ffffff;stroke-width:0.478146"
       id="rect1831"
       width="115"
       height="95"
       x="61.0224"
       y="35.976185" />
    <g
       aria-label="PiLog"
       transform="matrix(0.97326404,0,0,1.0274704,-52.771292,89.730618)"
       id="text5169-8-92-1-4"
       style="font-size:21.2361px;line-height:1.25;letter-spacing:0px;word-spacing:0px;fill:#00d3ff;stroke-width:0.530902">
      <g
         id="g1435">
        <path
           d="m 147.22069,12.755729 q 0,0.72999 -0.0995,1.758612 -0.0664,1.028621 -0.26545,2.090425 -0.1659,1.061803 -0.49772,1.99088 -0.33181,0.929078 -0.82953,1.45998 -0.19909,0.232269 -1.29407,0.464539 -1.06181,0.199088 -2.58815,0.431357 -1.49316,0.199088 -3.21859,0.398176 -1.72543,0.199088 -3.28495,0.364995 -1.52635,0.132725 -2.65451,0.232269 -1.12817,0.09954 -1.4268,0.09954 l -0.26545,6.901721 q -1.02862,0.06636 -2.02406,0.03318 -0.99544,-0.06636 -2.02406,-0.06636 -0.66363,0 -1.32726,0.03318 -0.66363,0.03318 -1.32725,0.09954 0,-3.119047 0,-6.171731 0,-3.052684 -0.13273,-6.17173 -0.0995,-2.820415 -0.19909,-5.607648 -0.0664,-2.7872332 -0.13272,-5.6076477 3.41768,-0.2322694 6.86854,-0.5640828 3.48404,-0.3649949 6.9349,-0.3649949 0.59726,0 1.89134,0.1327254 1.29407,0.099544 2.72087,0.3649948 1.42679,0.2322695 2.62132,0.5972643 1.22771,0.3649948 1.62589,0.8295337 0.26545,0.2986321 0.43136,1.1613471 0.19908,0.862715 0.29863,1.8581554 0.0995,0.9622587 0.13272,1.8913367 0.0664,0.929078 0.0664,1.360435 z m -9.29078,-0.232269 q 0,-0.298632 -0.0332,-0.763171 -0.0332,-0.464539 -0.13273,-0.895896 -0.0664,-0.464539 -0.23227,-0.829534 -0.1659,-0.3981763 -0.43135,-0.564083 -0.16591,-0.099544 -0.53091,-0.1659068 -0.36499,-0.066363 -0.76317,-0.099544 -0.39817,-0.033181 -0.76317,-0.033181 -0.36499,-0.033181 -0.5309,-0.033181 -1.22771,0 -2.45542,0.1327254 -1.22771,0.1327254 -2.4886,0.3318135 0.0995,0.9954409 0.0995,1.9576999 0.0332,0.962259 0.0332,1.924518 0,1.559523 0.0995,3.152228 0.43136,0 1.49316,-0.03318 1.0618,-0.06636 2.22315,-0.165907 1.16135,-0.132726 2.18997,-0.331814 1.02862,-0.232269 1.39362,-0.597264 0.59726,-0.564083 0.6968,-1.360435 0.13273,-0.829534 0.13273,-1.625886 z"
           style="font-size:33.9777px;fill:#000000"
           id="path5769" />
        <path
           d="m 153.66202,15.538791 q 0,0.414767 -0.18664,0.788058 -0.16591,0.352552 -0.47698,0.622151 -0.29034,0.269599 -0.66363,0.435506 -0.37329,0.145169 -0.74658,0.145169 -0.41477,0 -0.78806,-0.186646 -0.35255,-0.186645 -0.62215,-0.476982 -0.2696,-0.290338 -0.41477,-0.663628 -0.14517,-0.39403 -0.14517,-0.788059 0,-0.394029 0.14517,-0.725843 0.16591,-0.352552 0.41477,-0.601413 0.2696,-0.248861 0.60141,-0.394029 0.35255,-0.145169 0.74658,-0.145169 0.39403,0 0.76732,0.165907 0.39403,0.145169 0.68437,0.435506 0.31107,0.269599 0.49772,0.64289 0.18664,0.352552 0.18664,0.746582 z m 0.85028,3.525524 q -0.10369,1.099134 -0.16591,2.17753 -0.0622,1.078395 -0.12443,2.156791 -0.0829,1.265041 -0.29034,2.509344 -0.18664,1.244302 -0.4355,2.488605 l -3.17298,0.331814 q 0,-0.663628 0,-1.306518 0.0207,-0.64289 0.0207,-1.306518 0,-1.700547 -0.0622,-3.401094 -0.0622,-1.700547 -0.12443,-3.401094 1.09913,-0.04148 2.15679,-0.12443 1.07839,-0.08295 2.19827,-0.12443 z"
           style="fill:#969696"
           id="path5771" />
        <path
           d="m 174.14736,28.583232 q -3.94858,0.298632 -7.86398,0.564083 -3.88222,0.265451 -7.8308,0.49772 -0.1659,-6.337637 -0.26545,-12.575731 -0.0995,-6.271274 -0.36499,-12.6420928 2.22315,-0.033181 4.37994,-0.1327253 2.15678,-0.099544 4.34675,-0.2654508 -0.36499,2.4554197 -0.69681,4.9440207 -0.29863,2.4554192 -0.46453,4.9440202 -0.13273,2.090425 -0.23227,4.18085 -0.0664,2.057244 -0.13273,4.147669 2.18997,0.06636 4.31358,0.06636 2.15678,0 4.31357,0.06636 z"
           style="font-size:33.9777px;fill:#0064ff"
           id="path5773" />
        <path
           d="m 200.49335,16.272952 q 0,0.265451 0,0.530902 0,0.232269 -0.0332,0.49772 -0.0332,0.464539 -0.16591,1.526342 -0.13272,1.061803 -0.36499,2.22315 -0.23227,1.128166 -0.56408,2.090425 -0.33182,0.962259 -0.72999,1.22771 -0.19909,0.132725 -1.36044,0.232269 -1.12816,0.09954 -2.78723,0.199088 -1.62589,0.09954 -3.55041,0.165907 -1.92451,0.06636 -3.68313,0.132725 -1.72543,0.03318 -3.05268,0.06636 -1.29407,0.03318 -1.72543,0.03318 -0.19909,0 -0.69681,0 -0.46454,0 -0.99544,0 -0.5309,-0.03318 -0.99544,-0.06636 -0.46454,-0.03318 -0.66363,-0.09954 -0.46453,-0.165907 -0.92907,-0.530902 -0.46454,-0.398176 -0.86272,-0.862715 -0.39817,-0.49772 -0.72999,-0.99544 -0.29863,-0.530902 -0.43136,-0.995441 -0.0995,-0.364995 -0.1659,-1.094984 -0.0664,-0.763171 -0.0995,-1.559523 -0.0332,-0.829534 -0.0664,-1.592705 0,-0.763171 0,-1.161347 0,-0.630446 0.0332,-1.72543 0.0332,-1.128166 0.19909,-2.289513 0.16591,-1.161347 0.46454,-2.156788 0.33181,-1.0286215 0.92908,-1.4267977 0.26545,-0.1659067 0.99544,-0.2986321 0.72999,-0.1327254 1.72543,-0.2322694 0.99544,-0.099544 2.1236,-0.1327254 1.12817,-0.066363 2.18997,-0.066363 1.09499,-0.033181 2.02406,-0.033181 0.92908,0 1.49317,0.033181 0.49772,0.033181 1.42679,0.066363 0.92908,0 2.05725,0.033181 1.16134,0.033181 2.38905,0.1327254 1.22771,0.066363 2.28952,0.1990881 1.0618,0.1327254 1.85815,0.3649948 0.82954,0.1990881 1.09499,0.4977202 0.43135,0.4645389 0.6968,1.3936171 0.26546,0.929077 0.39818,1.990881 0.16591,1.028621 0.19909,2.057243 0.0664,0.995441 0.0664,1.625886 z m -7.03444,0.696808 q 0,-0.398176 -0.0332,-0.929077 -0.0332,-0.530902 -0.0995,-1.061803 -0.0664,-0.564083 -0.19909,-1.061804 -0.13272,-0.530901 -0.33181,-0.862715 -0.26545,-0.431357 -1.02862,-0.663626 -0.76317,-0.23227 -1.69225,-0.331814 -0.8959,-0.132725 -1.79179,-0.165907 -0.86272,-0.03318 -1.29408,-0.03318 -0.23227,0 -0.82953,0.03318 -0.59726,0 -1.26089,0.03318 -0.63045,0.03318 -1.19453,0.132725 -0.56408,0.06636 -0.72999,0.165907 -0.29863,0.199088 -0.46454,0.630445 -0.16591,0.398177 -0.26545,0.895897 -0.0664,0.49772 -0.0995,0.99544 0,0.464539 0,0.763171 0,0.298632 0.0332,1.094985 0.0664,0.763171 0.13272,1.659067 0.0995,0.862715 0.23227,1.592705 0.13273,0.729989 0.33182,0.929077 0.23227,0.265451 0.86271,0.431358 0.66363,0.165907 1.39362,0.298632 0.76317,0.09954 1.45998,0.165907 0.69681,0.03318 0.99544,0.03318 0.5309,0 1.26089,-0.03318 0.72999,-0.03318 1.45998,-0.165907 0.76317,-0.132725 1.4268,-0.364995 0.66362,-0.232269 1.0618,-0.630445 0.23227,-0.23227 0.36499,-0.696809 0.13273,-0.464539 0.19909,-0.99544 0.0664,-0.530902 0.0664,-1.028622 0.0332,-0.530901 0.0332,-0.829534 z"
           style="font-size:33.9777px;fill:#0064ff"
           id="path5775" />
        <path
           d="m 225.71117,17.666569 q 0,1.393616 -0.0332,2.787233 0,1.360435 0,2.754052 -0.0332,0.729989 -0.0332,1.49316 0.0332,0.763171 -0.0332,1.526342 -0.0995,0.72999 -0.19909,1.559524 -0.0995,0.796352 -0.33181,1.592704 -0.23227,0.796352 -0.63045,1.493161 -0.36499,0.696808 -0.99544,1.194528 -0.1659,0.132726 -0.66362,0.23227 -0.49772,0.09954 -1.16135,0.199088 -0.66363,0.09954 -1.4268,0.165907 -0.76317,0.06636 -1.45998,0.09954 -0.69681,0.06636 -1.26089,0.09954 -0.56408,0.06636 -0.79635,0.06636 -2.09043,0.06636 -4.14767,0.09954 -2.02406,0.03318 -4.11449,0.03318 h -2.1236 q -0.0664,-0.564083 -0.13273,-1.161347 -0.0664,-0.597265 -0.0664,-1.194529 0,-0.663627 -0.13273,-1.360435 -0.13272,-0.72999 -0.29863,-1.426798 l 2.18997,0.03318 q 0.19909,0 1.09498,0 0.92908,-0.03318 2.15679,-0.03318 1.22771,-0.03318 2.62133,-0.06636 1.4268,-0.06636 2.62132,-0.165907 1.19453,-0.09954 2.02407,-0.232269 0.86271,-0.132725 0.96226,-0.298632 0.26545,-0.431358 0.33181,-0.962259 0.0664,-0.564083 0.0664,-1.061803 0,-0.265451 -0.0332,-0.530902 0,-0.298632 -0.0332,-0.564083 -1.85816,0.132726 -3.68313,0.23227 -1.82497,0.09954 -3.71631,0.09954 -0.43136,0 -1.09499,0 -0.63044,0 -1.32725,-0.03318 -0.66363,-0.03318 -1.32725,-0.09954 -0.63045,-0.06636 -1.02863,-0.199088 -0.66362,-0.199088 -1.36043,-0.431357 -0.66363,-0.265451 -1.26089,-0.630446 -0.59727,-0.364995 -1.0618,-0.862715 -0.43136,-0.530901 -0.59727,-1.260891 -0.0995,-0.364995 -0.13272,-0.796352 0,-0.431358 0,-0.796353 0,-0.929077 0.0995,-2.355875 0.0995,-1.426798 0.33181,-2.886777 0.26545,-1.493161 0.66363,-2.787234 0.43136,-1.3272535 1.0618,-1.9908804 0.365,-0.3981762 1.16135,-0.6968083 0.82953,-0.2986322 1.85816,-0.4977202 1.02862,-0.1990881 2.15678,-0.3318135 1.16135,-0.1659067 2.25633,-0.2322694 1.09499,-0.066363 1.99089,-0.099544 0.92907,-0.033181 1.45997,-0.033181 1.85816,0 3.71632,0.099544 l 0.23227,-2.1236062 5.57446,0.8295337 q 0.0332,2.8867772 0.0332,5.7403723 0.0332,2.853596 0.0332,5.773555 z m -5.87309,-0.630446 q 0,-1.061803 -0.0332,-2.057243 -0.0332,-1.028622 -0.0995,-2.090425 -1.45998,-0.331814 -2.91996,-0.530902 -1.45998,-0.199088 -2.98632,-0.199088 -0.26545,0 -0.79635,0.03318 -0.5309,0.03318 -1.12817,0.132726 -0.56408,0.06636 -1.0618,0.232269 -0.49772,0.132726 -0.69681,0.331814 -0.29863,0.331813 -0.36499,0.763171 -0.0664,0.431357 -0.0664,0.862715 0,0.364995 0.0664,1.128166 0.0995,0.729989 0.23227,1.526341 0.13272,0.796353 0.33181,1.493161 0.19909,0.696808 0.39818,0.962259 0.19908,0.265451 0.49772,0.398176 0.29863,0.132726 0.63044,0.199088 0.365,0.03318 0.69681,0.06636 0.36499,0 0.63045,0 0.66362,0 1.5927,-0.03318 0.96226,-0.06636 1.89134,-0.199088 0.96226,-0.132726 1.79179,-0.364995 0.82953,-0.265451 1.26089,-0.696808 0.0664,-0.03318 0.0995,-0.331814 0.0332,-0.298632 0.0332,-0.630446 0,-0.331813 0,-0.630445 0,-0.298632 0,-0.364995 z"
           style="font-size:33.9777px;fill:#0064ff"
           id="path5777" />
      </g>
    </g>
    <g
       id="g1805"
       transform="translate(-38.091817,-125.88106)">
      <path
         sodipodi:nodetypes="cccczcczczzccc"
         inkscape:connector-curvature="0"
         id="path5082-5-1-8-7-6-17"
         d="m 147.52598,179.04852 c 0,0 1.82639,7.47965 2.16991,10.99422 0.73349,5.71332 -0.5597,12.20001 -1.59127,16.49136 -0.99381,2.90513 -4.77381,10.7049 -4.77381,10.7049 0,0 13.05448,-4.04984 17.06999,-4.62914 4.01551,-0.5793 6.6544,-0.14467 6.6544,-0.14467 l 3.03789,-10.99423 c 0,0 -4.31665,5.39067 -7.52238,6.50974 -3.20572,1.11906 -7.19102,2.90266 -10.41558,-0.43398 -0.64316,-2.82395 1.82401,-15.27512 1.30194,-18.95058 -0.52206,-3.67547 -2.1267,-8.02704 -2.45923,-10.56025 -0.33253,-2.5332 -0.14467,-4.48449 -0.14467,-4.48449 z"
         style="fill:#0064ff;fill-opacity:1;stroke:#0064ff;stroke-width:0.202525px;stroke-linecap:butt;stroke-linejoin:miter;stroke-opacity:1" />
      <path
         id="path4650-2-4-0"
         style="fill:#000000;fill-opacity:1;stroke:#000000;stroke-width:0.202525px;stroke-linecap:butt;stroke-linejoin:miter;stroke-opacity:1"
         d="m 155.64836,179.17769 c -6.25244,-0.10391 -15.10037,3.20343 -15.10037,3.20343 9.21513,10.37401 6.55191,26.7375 1.88051,30.81258 2.58096,-0.97517 9.10627,5.32321 8.82478,4.33979 -3.14842,-10.99937 -0.28939,-19.52904 -0.28939,-19.52904 4.23901,2.8658 16.53012,2.60237 17.06873,-7.78195 0.33826,-5.46415 -3.86533,-9.38271 -9.89655,-10.77196 -0.75391,-0.17365 -1.5945,-0.258 -2.48771,-0.27285 z m -1.47691,4.9351 c 4.14331,0.0228 8.1578,1.25244 7.64191,6.07974 -1.03178,9.65459 -12.72997,2.31458 -12.72997,2.31458 0,0 -2.4e-4,0.14456 -3.32745,-7.23315 0,0 4.2722,-1.18396 8.41551,-1.16117 z" />
      <path
         sodipodi:nodetypes="ccccszcc"
         inkscape:connector-curvature="0"
         id="path5082-5-1-8-8-8-0-0"
         d="m 147.52598,179.04852 c 0,0 1.82639,7.47965 2.16991,10.99422 0.1838,1.43168 0.1892,1.42871 0.15448,2.9108 0,0 -0.20458,0.46031 3.25317,1.70317 0.25049,-2.40417 0.5225,-4.87101 0.35353,-6.06057 -0.52206,-3.67547 -2.1267,-8.02704 -2.45923,-10.56025 -0.33253,-2.5332 -0.14467,-4.48449 -0.14467,-4.48449 z"
         style="fill:#0064ff;fill-opacity:1;stroke:#0064ff;stroke-width:0.202525px;stroke-linecap:butt;stroke-linejoin:miter;stroke-opacity:1" />
    </g>
  </g>
</svg>
