<?xml version="1.0" encoding="UTF-8" standalone="no"?>
<!-- Created with Inkscape (http://www.inkscape.org/) -->

<svg
   width="255mm"
   height="95mm"
   viewBox="0 0 255 95"
   version="1.1"
   id="svg988"
   inkscape:version="1.1 (c68e22c387, 2021-05-23)"
   sodipodi:docname="logo_montat.svg"
   xmlns:inkscape="http://www.inkscape.org/namespaces/inkscape"
   xmlns:sodipodi="http://sodipodi.sourceforge.net/DTD/sodipodi-0.dtd"
   xmlns="http://www.w3.org/2000/svg"
   xmlns:svg="http://www.w3.org/2000/svg">
  <sodipodi:namedview
     id="namedview990"
     pagecolor="#505050"
     bordercolor="#eeeeee"
     borderopacity="1"
     inkscape:pageshadow="0"
     inkscape:pageopacity="0"
     inkscape:pagecheckerboard="0"
     inkscape:document-units="mm"
     showgrid="false"
     fit-margin-top="0"
     fit-margin-left="0"
     fit-margin-right="0"
     fit-margin-bottom="0"
     inkscape:zoom="0.74118967"
     inkscape:cx="407.45306"
     inkscape:cy="427.0162"
     inkscape:window-width="1920"
     inkscape:window-height="1017"
     inkscape:window-x="-8"
     inkscape:window-y="-8"
     inkscape:window-maximized="1"
     inkscape:current-layer="layer1">
    <inkscape:grid
       type="xygrid"
       id="grid1807"
       originx="-0.29375497"
       originy="0.93730981" />
  </sodipodi:namedview>
  <defs
     id="defs985" />
  <g
     inkscape:label="Capa 1"
     inkscape:groupmode="layer"
     id="layer1"
     transform="translate(-61.022401,-35.976186)">
    <rect
       style="fill:#ffffff;stroke-width:0.712003"
       id="rect1831"
       width="255"
       height="95"
       x="61.0224"
       y="35.976185" />
    <g
       aria-label="Psicologia - Logopèdia"
       id="text4995-8-6-2-16-0"
       style="font-size:10.5833px;line-height:1.25;letter-spacing:0px;word-spacing:0px;fill:#0064ff;stroke-width:0.264583"
       transform="translate(-55.727676,76.405768)">
      <path
         d="m 233.47253,38.323863 v 3.559472 h 1.77974 q 0.36587,0 0.68833,-0.136426 0.32246,-0.142627 0.5643,-0.384472 0.24185,-0.241846 0.37827,-0.564307 0.14263,-0.328662 0.14263,-0.694531 0,-0.365869 -0.14263,-0.68833 -0.13642,-0.328662 -0.37827,-0.570508 -0.24184,-0.241846 -0.5643,-0.378271 -0.32246,-0.142627 -0.68833,-0.142627 z m 0,7.112744 h -1.77974 v -8.892481 h 3.55948 q 0.48989,0 0.94257,0.130225 0.45269,0.124023 0.84336,0.359668 0.39688,0.229443 0.71934,0.558105 0.32866,0.322461 0.55811,0.719336 0.23564,0.396875 0.35966,0.849561 0.13023,0.452685 0.13023,0.942578 0,0.731738 -0.27906,1.382861 -0.27905,0.644922 -0.76274,1.128613 -0.48369,0.483692 -1.13481,0.762745 -0.64493,0.279052 -1.37666,0.279052 h -1.77974 z"
         style="font-family:Righteous;-inkscape-font-specification:Righteous;fill:#000000"
         id="path5817" />
      <path
         d="m 243.31379,45.436607 h -3.86953 v -1.686719 h 3.86953 q 0.17363,0 0.29766,-0.124024 0.12402,-0.124023 0.12402,-0.297656 0,-0.179834 -0.12402,-0.235644 -0.12403,-0.05581 -0.29766,-0.05581 h -1.76113 q -0.44029,0 -0.82476,-0.167431 -0.38447,-0.167432 -0.66973,-0.452686 -0.28525,-0.291455 -0.45268,-0.675928 -0.16123,-0.384472 -0.16123,-0.824756 0,-0.440283 0.16123,-0.824755 0.16743,-0.384473 0.45268,-0.669727 0.28526,-0.285254 0.66973,-0.446484 0.38447,-0.167432 0.82476,-0.167432 h 3.42924 v 1.686719 h -3.42924 q -0.17364,0 -0.29766,0.124023 -0.12402,0.124024 -0.12402,0.297656 0,0.179834 0.12402,0.310059 0.12402,0.124023 0.29766,0.124023 h 1.76113 q 0.43408,0 0.81855,0.148829 0.38448,0.142626 0.66973,0.403076 0.28525,0.260449 0.45269,0.626318 0.16743,0.365869 0.16743,0.799951 0,0.440283 -0.16743,0.824756 -0.16744,0.378272 -0.45269,0.669727 -0.28525,0.285254 -0.66973,0.452685 -0.38447,0.161231 -0.81855,0.16123 z"
         style="font-family:Righteous;-inkscape-font-specification:Righteous;fill:#000000"
         id="path5819" />
      <path
         d="m 248.31814,36.990611 q 0,0.235644 -0.093,0.440283 -0.0868,0.204639 -0.24185,0.359668 -0.15503,0.148828 -0.36587,0.241846 -0.20464,0.08682 -0.44028,0.08682 -0.23564,0 -0.44648,-0.08682 -0.20464,-0.09302 -0.35967,-0.241846 -0.14883,-0.155029 -0.24185,-0.359668 -0.0868,-0.204639 -0.0868,-0.440283 0,-0.229444 0.0868,-0.434082 0.093,-0.21084 0.24185,-0.359668 0.15503,-0.15503 0.35967,-0.241846 0.21084,-0.09302 0.44648,-0.09302 0.23564,0 0.44028,0.09302 0.21084,0.08682 0.36587,0.241846 0.15503,0.148828 0.24185,0.359668 0.093,0.204638 0.093,0.434082 z m -0.29146,8.445996 h -1.70532 v -6.641455 h 1.70532 z"
         style="font-family:Righteous;-inkscape-font-specification:Righteous;fill:#000000"
         id="path5821" />
      <path
         d="m 255.12082,40.116001 -1.24023,1.246436 q -0.093,-0.260449 -0.25425,-0.465088 -0.16123,-0.21084 -0.36587,-0.353467 -0.19844,-0.142627 -0.43408,-0.217041 -0.23565,-0.07441 -0.48369,-0.07441 -0.34727,0 -0.65733,0.142627 -0.30386,0.142627 -0.5333,0.403076 -0.22324,0.254248 -0.35347,0.607715 -0.13022,0.353467 -0.13022,0.781348 0,0.347265 0.13022,0.651123 0.13023,0.303857 0.35347,0.5333 0.22944,0.229444 0.5333,0.359668 0.31006,0.130225 0.65733,0.130225 0.24804,0 0.47749,-0.06821 0.22944,-0.06821 0.42788,-0.192236 0.20464,-0.130225 0.35966,-0.310059 0.16124,-0.186035 0.26045,-0.409277 l 1.24024,1.246435 q -0.23565,0.334864 -0.5457,0.601514 -0.30386,0.26665 -0.66353,0.452686 -0.35347,0.186035 -0.75034,0.279052 -0.39068,0.09922 -0.80615,0.09922 -0.70074,0 -1.32085,-0.260449 -0.61392,-0.266651 -1.07901,-0.725537 -0.45888,-0.458887 -0.72553,-1.072803 -0.26666,-0.613916 -0.26666,-1.314648 0,-0.762745 0.26666,-1.42627 0.26665,-0.663525 0.72553,-1.153418 0.46509,-0.496094 1.07901,-0.781347 0.62011,-0.285254 1.32085,-0.285254 0.41547,0 0.81235,0.10542 0.40308,0.105419 0.76274,0.310058 0.36587,0.198438 0.66973,0.489893 0.31006,0.291455 0.5333,0.669726 z"
         style="font-family:Righteous;-inkscape-font-specification:Righteous;fill:#000000"
         id="path5823" />
      <path
         d="m 262.26457,42.056968 q 0,0.744141 -0.26665,1.389062 -0.26665,0.638721 -0.72554,1.11001 -0.45888,0.465088 -1.079,0.73794 -0.61392,0.26665 -1.32085,0.26665 -0.70073,0 -1.32085,-0.26665 -0.61392,-0.272852 -1.07901,-0.73794 -0.45888,-0.471289 -0.72553,-1.11001 -0.26665,-0.644921 -0.26665,-1.389062 0,-0.756543 0.26665,-1.401465 0.26665,-0.644922 0.72553,-1.11001 0.46509,-0.471289 1.07901,-0.737939 0.62012,-0.26665 1.32085,-0.26665 0.70693,0 1.32085,0.254248 0.62012,0.248047 1.079,0.713134 0.45889,0.458887 0.72554,1.11001 0.26665,0.644922 0.26665,1.438672 z m -1.70532,0 q 0,-0.409277 -0.13643,-0.737939 -0.13022,-0.334864 -0.35967,-0.570508 -0.22944,-0.241846 -0.5395,-0.365869 -0.30386,-0.130225 -0.65112,-0.130225 -0.34727,0 -0.65733,0.130225 -0.30385,0.124023 -0.5333,0.365869 -0.22324,0.235644 -0.35346,0.570508 -0.13023,0.328662 -0.13023,0.737939 0,0.384473 0.13023,0.713135 0.13022,0.328662 0.35346,0.570508 0.22945,0.241845 0.5333,0.384472 0.31006,0.136426 0.65733,0.136426 0.34726,0 0.65112,-0.130225 0.31006,-0.130224 0.5395,-0.365869 0.22945,-0.235644 0.35967,-0.570508 0.13643,-0.334863 0.13643,-0.737939 z"
         style="font-family:Righteous;-inkscape-font-specification:Righteous;fill:#000000"
         id="path5825" />
      <path
         d="m 264.90627,45.436607 h -1.70532 v -9.283155 h 1.70532 z"
         style="font-family:Righteous;-inkscape-font-specification:Righteous;fill:#000000"
         id="path5827" />
      <path
         d="m 272.61433,42.056968 q 0,0.744141 -0.26665,1.389062 -0.26665,0.638721 -0.72554,1.11001 -0.45889,0.465088 -1.079,0.73794 -0.61392,0.26665 -1.32085,0.26665 -0.70074,0 -1.32085,-0.26665 -0.61392,-0.272852 -1.07901,-0.73794 -0.45888,-0.471289 -0.72553,-1.11001 -0.26665,-0.644921 -0.26665,-1.389062 0,-0.756543 0.26665,-1.401465 0.26665,-0.644922 0.72553,-1.11001 0.46509,-0.471289 1.07901,-0.737939 0.62011,-0.26665 1.32085,-0.26665 0.70693,0 1.32085,0.254248 0.62011,0.248047 1.079,0.713134 0.45889,0.458887 0.72554,1.11001 0.26665,0.644922 0.26665,1.438672 z m -1.70532,0 q 0,-0.409277 -0.13643,-0.737939 -0.13023,-0.334864 -0.35967,-0.570508 -0.22944,-0.241846 -0.5395,-0.365869 -0.30386,-0.130225 -0.65112,-0.130225 -0.34727,0 -0.65733,0.130225 -0.30386,0.124023 -0.5333,0.365869 -0.22324,0.235644 -0.35347,0.570508 -0.13022,0.328662 -0.13022,0.737939 0,0.384473 0.13022,0.713135 0.13023,0.328662 0.35347,0.570508 0.22944,0.241845 0.5333,0.384472 0.31006,0.136426 0.65733,0.136426 0.34726,0 0.65112,-0.130225 0.31006,-0.130224 0.5395,-0.365869 0.22944,-0.235644 0.35967,-0.570508 0.13643,-0.334863 0.13643,-0.737939 z"
         style="font-family:Righteous;-inkscape-font-specification:Righteous;fill:#000000"
         id="path5829" />
      <path
         d="m 278.276,42.056968 q 0,-0.347266 -0.13643,-0.669727 -0.13023,-0.328662 -0.35967,-0.576709 -0.22944,-0.254248 -0.5395,-0.403076 -0.30386,-0.155029 -0.65112,-0.155029 -0.34727,0 -0.65733,0.117822 -0.30386,0.117823 -0.5333,0.347266 -0.22324,0.229443 -0.35347,0.570508 -0.13022,0.334863 -0.13022,0.768945 0,0.415479 0.13022,0.750342 0.13023,0.328662 0.35347,0.564306 0.22944,0.235645 0.5333,0.36587 0.31006,0.124023 0.65733,0.124023 0.34726,0 0.65112,-0.148828 0.31006,-0.155029 0.5395,-0.403076 0.22944,-0.254248 0.35967,-0.576709 0.13643,-0.328662 0.13643,-0.675928 z m 1.70532,2.54248 q 0,0.700733 -0.26665,1.314649 -0.26665,0.613916 -0.73174,1.072803 -0.45889,0.458886 -1.07901,0.725537 -0.61391,0.26665 -1.31464,0.26665 l -0.84956,-0.0124 v -1.69292 l 0.83715,0.0124 q 0.39688,0 0.67593,-0.10542 0.27905,-0.09922 0.47129,-0.279052 0.19224,-0.173633 0.30386,-0.403077 0.11782,-0.229443 0.18603,-0.483691 -0.0992,0.16123 -0.28525,0.26665 -0.18604,0.09922 -0.41548,0.161231 -0.22324,0.06821 -0.47129,0.09302 -0.24184,0.02481 -0.45268,0.02481 -0.70074,0 -1.32085,-0.241846 -0.61392,-0.241845 -1.07901,-0.68833 -0.45888,-0.452685 -0.72553,-1.103808 -0.26665,-0.651123 -0.26665,-1.469678 0,-0.750342 0.26665,-1.395264 0.26665,-0.644922 0.72553,-1.116211 0.46509,-0.471289 1.07901,-0.737939 0.62011,-0.26665 1.32085,-0.26665 0.32246,0 0.63872,0.08061 0.31626,0.08062 0.61391,0.223242 0.29766,0.142627 0.56431,0.334863 0.27285,0.192237 0.5085,0.415479 l 0.65732,-0.787549 h 0.40928 z"
         style="font-family:Righteous;-inkscape-font-specification:Righteous;fill:#000000"
         id="path5831" />
      <path
         d="m 283.26794,36.990611 q 0,0.235644 -0.093,0.440283 -0.0868,0.204639 -0.24184,0.359668 -0.15503,0.148828 -0.36587,0.241846 -0.20464,0.08682 -0.44029,0.08682 -0.23564,0 -0.44648,-0.08682 -0.20464,-0.09302 -0.35967,-0.241846 -0.14883,-0.155029 -0.24185,-0.359668 -0.0868,-0.204639 -0.0868,-0.440283 0,-0.229444 0.0868,-0.434082 0.093,-0.21084 0.24185,-0.359668 0.15503,-0.15503 0.35967,-0.241846 0.21084,-0.09302 0.44648,-0.09302 0.23565,0 0.44029,0.09302 0.21084,0.08682 0.36587,0.241846 0.15502,0.148828 0.24184,0.359668 0.093,0.204638 0.093,0.434082 z m -0.29146,8.445996 h -1.70532 v -6.641455 h 1.70532 z"
         style="font-family:Righteous;-inkscape-font-specification:Righteous;fill:#000000"
         id="path5833" />
      <path
         d="m 290.69694,45.436607 h -0.40927 l -0.65733,-0.911573 q -0.24184,0.217041 -0.5147,0.409278 -0.26665,0.186035 -0.5643,0.328662 -0.29766,0.136426 -0.61392,0.217041 -0.31006,0.08062 -0.63252,0.08062 -0.70073,0 -1.32085,-0.235644 -0.61391,-0.235645 -1.079,-0.682129 -0.45889,-0.452686 -0.72554,-1.103809 -0.26665,-0.651123 -0.26665,-1.48208 0,-0.775146 0.26665,-1.420068 0.26665,-0.651123 0.72554,-1.116211 0.46509,-0.465088 1.079,-0.719336 0.62012,-0.260449 1.32085,-0.260449 0.32246,0 0.63872,0.08061 0.31626,0.08062 0.61392,0.223242 0.29766,0.142627 0.56431,0.334863 0.27285,0.192237 0.50849,0.415479 l 0.65733,-0.787549 h 0.40927 z m -1.70532,-3.379639 q 0,-0.347266 -0.13642,-0.669727 -0.13023,-0.328662 -0.35967,-0.576709 -0.22945,-0.254248 -0.5395,-0.403076 -0.30386,-0.155029 -0.65113,-0.155029 -0.34726,0 -0.65732,0.117822 -0.30386,0.117823 -0.5333,0.347266 -0.22324,0.229443 -0.35347,0.570508 -0.13022,0.334863 -0.13022,0.768945 0,0.434082 0.13022,0.775146 0.13023,0.334864 0.35347,0.564307 0.22944,0.229443 0.5333,0.347266 0.31006,0.117822 0.65732,0.117822 0.34727,0 0.65113,-0.148828 0.31005,-0.155029 0.5395,-0.403076 0.22944,-0.254248 0.35967,-0.576709 0.13642,-0.328662 0.13642,-0.675928 z"
         style="font-family:Righteous;-inkscape-font-specification:Righteous;fill:#000000"
         id="path5835" />
      <path
         d="m 300.85446,40.103599 v 1.686719 h -5.20898 v -1.686719 z"
         style="font-family:Righteous;-inkscape-font-specification:Righteous;fill:#969696"
         id="path5837" />
      <path
         d="m 312.21501,45.436607 h -6.22597 v -8.892481 h 1.77973 v 7.112744 h 4.44624 z"
         style="font-family:Righteous;-inkscape-font-specification:Righteous"
         id="path5839" />
      <path
         d="m 319.20993,42.056968 q 0,0.744141 -0.26665,1.389062 -0.26665,0.638721 -0.72554,1.11001 -0.45889,0.465088 -1.079,0.73794 -0.61392,0.26665 -1.32085,0.26665 -0.70074,0 -1.32085,-0.26665 -0.61392,-0.272852 -1.07901,-0.73794 -0.45888,-0.471289 -0.72553,-1.11001 -0.26665,-0.644921 -0.26665,-1.389062 0,-0.756543 0.26665,-1.401465 0.26665,-0.644922 0.72553,-1.11001 0.46509,-0.471289 1.07901,-0.737939 0.62011,-0.26665 1.32085,-0.26665 0.70693,0 1.32085,0.254248 0.62011,0.248047 1.079,0.713134 0.45889,0.458887 0.72554,1.11001 0.26665,0.644922 0.26665,1.438672 z m -1.70532,0 q 0,-0.409277 -0.13643,-0.737939 -0.13022,-0.334864 -0.35967,-0.570508 -0.22944,-0.241846 -0.5395,-0.365869 -0.30386,-0.130225 -0.65112,-0.130225 -0.34727,0 -0.65733,0.130225 -0.30385,0.124023 -0.5333,0.365869 -0.22324,0.235644 -0.35347,0.570508 -0.13022,0.328662 -0.13022,0.737939 0,0.384473 0.13022,0.713135 0.13023,0.328662 0.35347,0.570508 0.22945,0.241845 0.5333,0.384472 0.31006,0.136426 0.65733,0.136426 0.34726,0 0.65112,-0.130225 0.31006,-0.130224 0.5395,-0.365869 0.22945,-0.235644 0.35967,-0.570508 0.13643,-0.334863 0.13643,-0.737939 z"
         style="font-family:Righteous;-inkscape-font-specification:Righteous"
         id="path5841" />
      <path
         d="m 324.8716,42.056968 q 0,-0.347266 -0.13643,-0.669727 -0.13022,-0.328662 -0.35966,-0.576709 -0.22945,-0.254248 -0.53951,-0.403076 -0.30385,-0.155029 -0.65112,-0.155029 -0.34727,0 -0.65732,0.117822 -0.30386,0.117823 -0.5333,0.347266 -0.22325,0.229443 -0.35347,0.570508 -0.13023,0.334863 -0.13023,0.768945 0,0.415479 0.13023,0.750342 0.13022,0.328662 0.35347,0.564306 0.22944,0.235645 0.5333,0.36587 0.31005,0.124023 0.65732,0.124023 0.34727,0 0.65112,-0.148828 0.31006,-0.155029 0.53951,-0.403076 0.22944,-0.254248 0.35966,-0.576709 0.13643,-0.328662 0.13643,-0.675928 z m 1.70532,2.54248 q 0,0.700733 -0.26665,1.314649 -0.26665,0.613916 -0.73174,1.072803 -0.45888,0.458886 -1.079,0.725537 -0.61392,0.26665 -1.31465,0.26665 l -0.84956,-0.0124 v -1.69292 l 0.83716,0.0124 q 0.39687,0 0.67593,-0.10542 0.27905,-0.09922 0.47128,-0.279052 0.19224,-0.173633 0.30386,-0.403077 0.11782,-0.229443 0.18604,-0.483691 -0.0992,0.16123 -0.28526,0.26665 -0.18603,0.09922 -0.41547,0.161231 -0.22325,0.06821 -0.47129,0.09302 -0.24185,0.02481 -0.45269,0.02481 -0.70073,0 -1.32085,-0.241846 -0.61392,-0.241845 -1.079,-0.68833 -0.45889,-0.452685 -0.72554,-1.103808 -0.26665,-0.651123 -0.26665,-1.469678 0,-0.750342 0.26665,-1.395264 0.26665,-0.644922 0.72554,-1.116211 0.46508,-0.471289 1.079,-0.737939 0.62012,-0.26665 1.32085,-0.26665 0.32246,0 0.63872,0.08061 0.31626,0.08062 0.61392,0.223242 0.29765,0.142627 0.5643,0.334863 0.27286,0.192237 0.5085,0.415479 l 0.65732,-0.787549 h 0.40928 z"
         style="font-family:Righteous;-inkscape-font-specification:Righteous"
         id="path5843" />
      <path
         d="m 334.28498,42.056968 q 0,0.744141 -0.26665,1.389062 -0.26665,0.638721 -0.72554,1.11001 -0.45889,0.465088 -1.079,0.73794 -0.61392,0.26665 -1.32085,0.26665 -0.70074,0 -1.32085,-0.26665 -0.61392,-0.272852 -1.07901,-0.73794 -0.45888,-0.471289 -0.72553,-1.11001 -0.26665,-0.644921 -0.26665,-1.389062 0,-0.756543 0.26665,-1.401465 0.26665,-0.644922 0.72553,-1.11001 0.46509,-0.471289 1.07901,-0.737939 0.62011,-0.26665 1.32085,-0.26665 0.70693,0 1.32085,0.254248 0.62011,0.248047 1.079,0.713134 0.45889,0.458887 0.72554,1.11001 0.26665,0.644922 0.26665,1.438672 z m -1.70532,0 q 0,-0.409277 -0.13643,-0.737939 -0.13022,-0.334864 -0.35967,-0.570508 -0.22944,-0.241846 -0.5395,-0.365869 -0.30386,-0.130225 -0.65112,-0.130225 -0.34727,0 -0.65733,0.130225 -0.30385,0.124023 -0.5333,0.365869 -0.22324,0.235644 -0.35346,0.570508 -0.13023,0.328662 -0.13023,0.737939 0,0.384473 0.13023,0.713135 0.13022,0.328662 0.35346,0.570508 0.22945,0.241845 0.5333,0.384472 0.31006,0.136426 0.65733,0.136426 0.34726,0 0.65112,-0.130225 0.31006,-0.130224 0.5395,-0.365869 0.22945,-0.235644 0.35967,-0.570508 0.13643,-0.334863 0.13643,-0.737939 z"
         style="font-family:Righteous;-inkscape-font-specification:Righteous"
         id="path5845" />
      <path
         d="m 336.92668,47.966685 h -1.70532 v -9.171533 h 0.40927 l 0.67593,0.799951 q 0.22945,-0.217041 0.5023,-0.409278 0.27285,-0.192236 0.5643,-0.328662 0.29766,-0.142627 0.61392,-0.223242 0.31626,-0.08062 0.63872,-0.08062 0.70073,0 1.31465,0.254248 0.62012,0.248047 1.079,0.706934 0.46509,0.458886 0.73174,1.110009 0.26665,0.644922 0.26665,1.432471 0,0.818555 -0.26665,1.475879 -0.26665,0.651123 -0.73174,1.11001 -0.45888,0.452685 -1.079,0.694531 -0.61392,0.241846 -1.31465,0.241846 -0.22324,0 -0.44648,-0.04961 -0.21705,-0.04961 -0.43409,-0.130224 -0.21084,-0.08682 -0.42168,-0.192237 -0.20463,-0.10542 -0.39687,-0.217041 z m 3.39204,-5.909717 q 0,-0.42168 -0.13643,-0.756543 -0.13022,-0.334863 -0.35966,-0.564307 -0.22945,-0.235644 -0.53951,-0.359668 -0.31005,-0.124023 -0.65732,-0.124023 -0.34727,0 -0.65732,0.124023 -0.30386,0.124024 -0.53331,0.359668 -0.22944,0.229444 -0.36586,0.564307 -0.13023,0.334863 -0.13023,0.756543 0,0.403076 0.13023,0.737939 0.13642,0.334864 0.36586,0.570508 0.22945,0.235645 0.53331,0.365869 0.31005,0.130225 0.65732,0.130225 0.34727,0 0.65732,-0.130225 0.31006,-0.130224 0.53951,-0.365869 0.22944,-0.235644 0.35966,-0.570508 0.13643,-0.334863 0.13643,-0.737939 z"
         style="font-family:Righteous;-inkscape-font-specification:Righteous"
         id="path5847" />
      <path
         d="m 345.59592,43.8119 q 0.0992,0.03101 0.19844,0.04341 0.0992,0.0062 0.19844,0.0062 0.24804,0 0.47749,-0.06821 0.22944,-0.06821 0.42788,-0.192236 0.20463,-0.130225 0.35966,-0.310059 0.16123,-0.186035 0.26045,-0.409277 l 1.24024,1.246435 q -0.23565,0.334864 -0.54571,0.601514 -0.30385,0.26665 -0.66352,0.452686 -0.35347,0.186035 -0.75034,0.279052 -0.39068,0.09922 -0.80615,0.09922 -0.70074,0 -1.32085,-0.260449 -0.61392,-0.260449 -1.07901,-0.725537 -0.45889,-0.465088 -0.72554,-1.103809 -0.26665,-0.644922 -0.26665,-1.413867 0,-0.787549 0.26665,-1.438672 0.26665,-0.651123 0.72554,-1.11001 0.46509,-0.458886 1.07901,-0.713134 0.62011,-0.254248 1.32085,-0.254248 0.41547,0 0.81235,0.09922 0.39687,0.09922 0.75034,0.285254 0.35967,0.186035 0.66973,0.458887 0.31006,0.26665 0.5457,0.601514 z m 0.86816,-3.49126 q -0.11782,-0.04341 -0.23564,-0.05581 -0.11162,-0.0124 -0.23564,-0.0124 -0.34727,0 -0.65733,0.130225 -0.30386,0.124023 -0.5333,0.359668 -0.22324,0.235644 -0.35347,0.570507 -0.13022,0.328662 -0.13022,0.744141 0,0.09302 0.006,0.21084 0.0124,0.117822 0.031,0.241846 0.0248,0.117822 0.0558,0.229443 0.031,0.111621 0.0806,0.198437 z m -0.61391,-2.27583 -2.17041,-1.345654 1.02939,-1.296045 1.82935,1.717724 z"
         style="font-family:Righteous;-inkscape-font-specification:Righteous"
         id="path5849" />
      <path
         d="m 356.03869,45.436607 h -0.40927 l -0.65733,-0.911573 q -0.24184,0.217041 -0.5147,0.409278 -0.26665,0.186035 -0.5643,0.328662 -0.29766,0.136426 -0.61392,0.217041 -0.31006,0.08062 -0.63252,0.08062 -0.70073,0 -1.32085,-0.260449 -0.61391,-0.266651 -1.079,-0.731738 -0.45889,-0.471289 -0.72554,-1.11001 -0.26665,-0.644922 -0.26665,-1.401465 0,-0.750342 0.26665,-1.395264 0.26665,-0.644922 0.72554,-1.116211 0.46509,-0.471289 1.079,-0.737939 0.62012,-0.26665 1.32085,-0.26665 0.22324,0 0.45889,0.03721 0.24185,0.03721 0.46509,0.124023 0.22944,0.08062 0.42788,0.217041 0.19844,0.136426 0.33486,0.334863 v -3.100586 h 1.70532 z m -1.70532,-3.379639 q 0,-0.347266 -0.13642,-0.669727 -0.13023,-0.328662 -0.35967,-0.576709 -0.22945,-0.254248 -0.5395,-0.403076 -0.30386,-0.155029 -0.65113,-0.155029 -0.34726,0 -0.65732,0.124023 -0.30386,0.124024 -0.5333,0.359668 -0.22324,0.229444 -0.35347,0.564307 -0.13022,0.334863 -0.13022,0.756543 0,0.365869 0.13022,0.694531 0.13023,0.328662 0.35347,0.576709 0.22944,0.248047 0.5333,0.390674 0.31006,0.142627 0.65732,0.142627 0.34727,0 0.65113,-0.148828 0.31005,-0.155029 0.5395,-0.403076 0.22944,-0.254248 0.35967,-0.576709 0.13642,-0.328662 0.13642,-0.675928 z"
         style="font-family:Righteous;-inkscape-font-specification:Righteous"
         id="path5851" />
      <path
         d="m 359.32531,36.990611 q 0,0.235644 -0.093,0.440283 -0.0868,0.204639 -0.24184,0.359668 -0.15503,0.148828 -0.36587,0.241846 -0.20464,0.08682 -0.44028,0.08682 -0.23565,0 -0.44649,-0.08682 -0.20464,-0.09302 -0.35967,-0.241846 -0.14882,-0.155029 -0.24184,-0.359668 -0.0868,-0.204639 -0.0868,-0.440283 0,-0.229444 0.0868,-0.434082 0.093,-0.21084 0.24184,-0.359668 0.15503,-0.15503 0.35967,-0.241846 0.21084,-0.09302 0.44649,-0.09302 0.23564,0 0.44028,0.09302 0.21084,0.08682 0.36587,0.241846 0.15503,0.148828 0.24184,0.359668 0.093,0.204638 0.093,0.434082 z m -0.29145,8.445996 h -1.70533 v -6.641455 h 1.70533 z"
         style="font-family:Righteous;-inkscape-font-specification:Righteous"
         id="path5853" />
      <path
         d="m 366.75432,45.436607 h -0.40928 l -0.65732,-0.911573 q -0.24185,0.217041 -0.5147,0.409278 -0.26665,0.186035 -0.56431,0.328662 -0.29765,0.136426 -0.61391,0.217041 -0.31006,0.08062 -0.63252,0.08062 -0.70073,0 -1.32085,-0.235644 -0.61392,-0.235645 -1.079,-0.682129 -0.45889,-0.452686 -0.72554,-1.103809 -0.26665,-0.651123 -0.26665,-1.48208 0,-0.775146 0.26665,-1.420068 0.26665,-0.651123 0.72554,-1.116211 0.46508,-0.465088 1.079,-0.719336 0.62012,-0.260449 1.32085,-0.260449 0.32246,0 0.63872,0.08061 0.31626,0.08062 0.61392,0.223242 0.29765,0.142627 0.5643,0.334863 0.27285,0.192237 0.5085,0.415479 l 0.65732,-0.787549 h 0.40928 z m -1.70532,-3.379639 q 0,-0.347266 -0.13643,-0.669727 -0.13022,-0.328662 -0.35967,-0.576709 -0.22944,-0.254248 -0.5395,-0.403076 -0.30386,-0.155029 -0.65112,-0.155029 -0.34727,0 -0.65733,0.117822 -0.30385,0.117823 -0.5333,0.347266 -0.22324,0.229443 -0.35346,0.570508 -0.13023,0.334863 -0.13023,0.768945 0,0.434082 0.13023,0.775146 0.13022,0.334864 0.35346,0.564307 0.22945,0.229443 0.5333,0.347266 0.31006,0.117822 0.65733,0.117822 0.34726,0 0.65112,-0.148828 0.31006,-0.155029 0.5395,-0.403076 0.22945,-0.254248 0.35967,-0.576709 0.13643,-0.328662 0.13643,-0.675928 z"
         style="font-family:Righteous;-inkscape-font-specification:Righteous"
         id="path5855" />
    </g>
    <g
       aria-label="PiLog"
       transform="matrix(0.97326404,0,0,1.0274704,-52.771292,89.730618)"
       id="text5169-8-92-1-4"
       style="font-size:21.2361px;line-height:1.25;letter-spacing:0px;word-spacing:0px;fill:#00d3ff;stroke-width:0.530902">
      <g
         id="g1435">
        <path
           d="m 147.22069,12.755729 q 0,0.72999 -0.0995,1.758612 -0.0664,1.028621 -0.26545,2.090425 -0.1659,1.061803 -0.49772,1.99088 -0.33181,0.929078 -0.82953,1.45998 -0.19909,0.232269 -1.29407,0.464539 -1.06181,0.199088 -2.58815,0.431357 -1.49316,0.199088 -3.21859,0.398176 -1.72543,0.199088 -3.28495,0.364995 -1.52635,0.132725 -2.65451,0.232269 -1.12817,0.09954 -1.4268,0.09954 l -0.26545,6.901721 q -1.02862,0.06636 -2.02406,0.03318 -0.99544,-0.06636 -2.02406,-0.06636 -0.66363,0 -1.32726,0.03318 -0.66363,0.03318 -1.32725,0.09954 0,-3.119047 0,-6.171731 0,-3.052684 -0.13273,-6.17173 -0.0995,-2.820415 -0.19909,-5.607648 -0.0664,-2.7872332 -0.13272,-5.6076477 3.41768,-0.2322694 6.86854,-0.5640828 3.48404,-0.3649949 6.9349,-0.3649949 0.59726,0 1.89134,0.1327254 1.29407,0.099544 2.72087,0.3649948 1.42679,0.2322695 2.62132,0.5972643 1.22771,0.3649948 1.62589,0.8295337 0.26545,0.2986321 0.43136,1.1613471 0.19908,0.862715 0.29863,1.8581554 0.0995,0.9622587 0.13272,1.8913367 0.0664,0.929078 0.0664,1.360435 z m -9.29078,-0.232269 q 0,-0.298632 -0.0332,-0.763171 -0.0332,-0.464539 -0.13273,-0.895896 -0.0664,-0.464539 -0.23227,-0.829534 -0.1659,-0.3981763 -0.43135,-0.564083 -0.16591,-0.099544 -0.53091,-0.1659068 -0.36499,-0.066363 -0.76317,-0.099544 -0.39817,-0.033181 -0.76317,-0.033181 -0.36499,-0.033181 -0.5309,-0.033181 -1.22771,0 -2.45542,0.1327254 -1.22771,0.1327254 -2.4886,0.3318135 0.0995,0.9954409 0.0995,1.9576999 0.0332,0.962259 0.0332,1.924518 0,1.559523 0.0995,3.152228 0.43136,0 1.49316,-0.03318 1.0618,-0.06636 2.22315,-0.165907 1.16135,-0.132726 2.18997,-0.331814 1.02862,-0.232269 1.39362,-0.597264 0.59726,-0.564083 0.6968,-1.360435 0.13273,-0.829534 0.13273,-1.625886 z"
           style="font-size:33.9777px;fill:#000000"
           id="path5769" />
        <path
           d="m 153.66202,15.538791 q 0,0.414767 -0.18664,0.788058 -0.16591,0.352552 -0.47698,0.622151 -0.29034,0.269599 -0.66363,0.435506 -0.37329,0.145169 -0.74658,0.145169 -0.41477,0 -0.78806,-0.186646 -0.35255,-0.186645 -0.62215,-0.476982 -0.2696,-0.290338 -0.41477,-0.663628 -0.14517,-0.39403 -0.14517,-0.788059 0,-0.394029 0.14517,-0.725843 0.16591,-0.352552 0.41477,-0.601413 0.2696,-0.248861 0.60141,-0.394029 0.35255,-0.145169 0.74658,-0.145169 0.39403,0 0.76732,0.165907 0.39403,0.145169 0.68437,0.435506 0.31107,0.269599 0.49772,0.64289 0.18664,0.352552 0.18664,0.746582 z m 0.85028,3.525524 q -0.10369,1.099134 -0.16591,2.17753 -0.0622,1.078395 -0.12443,2.156791 -0.0829,1.265041 -0.29034,2.509344 -0.18664,1.244302 -0.4355,2.488605 l -3.17298,0.331814 q 0,-0.663628 0,-1.306518 0.0207,-0.64289 0.0207,-1.306518 0,-1.700547 -0.0622,-3.401094 -0.0622,-1.700547 -0.12443,-3.401094 1.09913,-0.04148 2.15679,-0.12443 1.07839,-0.08295 2.19827,-0.12443 z"
           style="fill:#969696"
           id="path5771" />
        <path
           d="m 174.14736,28.583232 q -3.94858,0.298632 -7.86398,0.564083 -3.88222,0.265451 -7.8308,0.49772 -0.1659,-6.337637 -0.26545,-12.575731 -0.0995,-6.271274 -0.36499,-12.6420928 2.22315,-0.033181 4.37994,-0.1327253 2.15678,-0.099544 4.34675,-0.2654508 -0.36499,2.4554197 -0.69681,4.9440207 -0.29863,2.4554192 -0.46453,4.9440202 -0.13273,2.090425 -0.23227,4.18085 -0.0664,2.057244 -0.13273,4.147669 2.18997,0.06636 4.31358,0.06636 2.15678,0 4.31357,0.06636 z"
           style="font-size:33.9777px;fill:#0064ff"
           id="path5773" />
        <path
           d="m 200.49335,16.272952 q 0,0.265451 0,0.530902 0,0.232269 -0.0332,0.49772 -0.0332,0.464539 -0.16591,1.526342 -0.13272,1.061803 -0.36499,2.22315 -0.23227,1.128166 -0.56408,2.090425 -0.33182,0.962259 -0.72999,1.22771 -0.19909,0.132725 -1.36044,0.232269 -1.12816,0.09954 -2.78723,0.199088 -1.62589,0.09954 -3.55041,0.165907 -1.92451,0.06636 -3.68313,0.132725 -1.72543,0.03318 -3.05268,0.06636 -1.29407,0.03318 -1.72543,0.03318 -0.19909,0 -0.69681,0 -0.46454,0 -0.99544,0 -0.5309,-0.03318 -0.99544,-0.06636 -0.46454,-0.03318 -0.66363,-0.09954 -0.46453,-0.165907 -0.92907,-0.530902 -0.46454,-0.398176 -0.86272,-0.862715 -0.39817,-0.49772 -0.72999,-0.99544 -0.29863,-0.530902 -0.43136,-0.995441 -0.0995,-0.364995 -0.1659,-1.094984 -0.0664,-0.763171 -0.0995,-1.559523 -0.0332,-0.829534 -0.0664,-1.592705 0,-0.763171 0,-1.161347 0,-0.630446 0.0332,-1.72543 0.0332,-1.128166 0.19909,-2.289513 0.16591,-1.161347 0.46454,-2.156788 0.33181,-1.0286215 0.92908,-1.4267977 0.26545,-0.1659067 0.99544,-0.2986321 0.72999,-0.1327254 1.72543,-0.2322694 0.99544,-0.099544 2.1236,-0.1327254 1.12817,-0.066363 2.18997,-0.066363 1.09499,-0.033181 2.02406,-0.033181 0.92908,0 1.49317,0.033181 0.49772,0.033181 1.42679,0.066363 0.92908,0 2.05725,0.033181 1.16134,0.033181 2.38905,0.1327254 1.22771,0.066363 2.28952,0.1990881 1.0618,0.1327254 1.85815,0.3649948 0.82954,0.1990881 1.09499,0.4977202 0.43135,0.4645389 0.6968,1.3936171 0.26546,0.929077 0.39818,1.990881 0.16591,1.028621 0.19909,2.057243 0.0664,0.995441 0.0664,1.625886 z m -7.03444,0.696808 q 0,-0.398176 -0.0332,-0.929077 -0.0332,-0.530902 -0.0995,-1.061803 -0.0664,-0.564083 -0.19909,-1.061804 -0.13272,-0.530901 -0.33181,-0.862715 -0.26545,-0.431357 -1.02862,-0.663626 -0.76317,-0.23227 -1.69225,-0.331814 -0.8959,-0.132725 -1.79179,-0.165907 -0.86272,-0.03318 -1.29408,-0.03318 -0.23227,0 -0.82953,0.03318 -0.59726,0 -1.26089,0.03318 -0.63045,0.03318 -1.19453,0.132725 -0.56408,0.06636 -0.72999,0.165907 -0.29863,0.199088 -0.46454,0.630445 -0.16591,0.398177 -0.26545,0.895897 -0.0664,0.49772 -0.0995,0.99544 0,0.464539 0,0.763171 0,0.298632 0.0332,1.094985 0.0664,0.763171 0.13272,1.659067 0.0995,0.862715 0.23227,1.592705 0.13273,0.729989 0.33182,0.929077 0.23227,0.265451 0.86271,0.431358 0.66363,0.165907 1.39362,0.298632 0.76317,0.09954 1.45998,0.165907 0.69681,0.03318 0.99544,0.03318 0.5309,0 1.26089,-0.03318 0.72999,-0.03318 1.45998,-0.165907 0.76317,-0.132725 1.4268,-0.364995 0.66362,-0.232269 1.0618,-0.630445 0.23227,-0.23227 0.36499,-0.696809 0.13273,-0.464539 0.19909,-0.99544 0.0664,-0.530902 0.0664,-1.028622 0.0332,-0.530901 0.0332,-0.829534 z"
           style="font-size:33.9777px;fill:#0064ff"
           id="path5775" />
        <path
           d="m 225.71117,17.666569 q 0,1.393616 -0.0332,2.787233 0,1.360435 0,2.754052 -0.0332,0.729989 -0.0332,1.49316 0.0332,0.763171 -0.0332,1.526342 -0.0995,0.72999 -0.19909,1.559524 -0.0995,0.796352 -0.33181,1.592704 -0.23227,0.796352 -0.63045,1.493161 -0.36499,0.696808 -0.99544,1.194528 -0.1659,0.132726 -0.66362,0.23227 -0.49772,0.09954 -1.16135,0.199088 -0.66363,0.09954 -1.4268,0.165907 -0.76317,0.06636 -1.45998,0.09954 -0.69681,0.06636 -1.26089,0.09954 -0.56408,0.06636 -0.79635,0.06636 -2.09043,0.06636 -4.14767,0.09954 -2.02406,0.03318 -4.11449,0.03318 h -2.1236 q -0.0664,-0.564083 -0.13273,-1.161347 -0.0664,-0.597265 -0.0664,-1.194529 0,-0.663627 -0.13273,-1.360435 -0.13272,-0.72999 -0.29863,-1.426798 l 2.18997,0.03318 q 0.19909,0 1.09498,0 0.92908,-0.03318 2.15679,-0.03318 1.22771,-0.03318 2.62133,-0.06636 1.4268,-0.06636 2.62132,-0.165907 1.19453,-0.09954 2.02407,-0.232269 0.86271,-0.132725 0.96226,-0.298632 0.26545,-0.431358 0.33181,-0.962259 0.0664,-0.564083 0.0664,-1.061803 0,-0.265451 -0.0332,-0.530902 0,-0.298632 -0.0332,-0.564083 -1.85816,0.132726 -3.68313,0.23227 -1.82497,0.09954 -3.71631,0.09954 -0.43136,0 -1.09499,0 -0.63044,0 -1.32725,-0.03318 -0.66363,-0.03318 -1.32725,-0.09954 -0.63045,-0.06636 -1.02863,-0.199088 -0.66362,-0.199088 -1.36043,-0.431357 -0.66363,-0.265451 -1.26089,-0.630446 -0.59727,-0.364995 -1.0618,-0.862715 -0.43136,-0.530901 -0.59727,-1.260891 -0.0995,-0.364995 -0.13272,-0.796352 0,-0.431358 0,-0.796353 0,-0.929077 0.0995,-2.355875 0.0995,-1.426798 0.33181,-2.886777 0.26545,-1.493161 0.66363,-2.787234 0.43136,-1.3272535 1.0618,-1.9908804 0.365,-0.3981762 1.16135,-0.6968083 0.82953,-0.2986322 1.85816,-0.4977202 1.02862,-0.1990881 2.15678,-0.3318135 1.16135,-0.1659067 2.25633,-0.2322694 1.09499,-0.066363 1.99089,-0.099544 0.92907,-0.033181 1.45997,-0.033181 1.85816,0 3.71632,0.099544 l 0.23227,-2.1236062 5.57446,0.8295337 q 0.0332,2.8867772 0.0332,5.7403723 0.0332,2.853596 0.0332,5.773555 z m -5.87309,-0.630446 q 0,-1.061803 -0.0332,-2.057243 -0.0332,-1.028622 -0.0995,-2.090425 -1.45998,-0.331814 -2.91996,-0.530902 -1.45998,-0.199088 -2.98632,-0.199088 -0.26545,0 -0.79635,0.03318 -0.5309,0.03318 -1.12817,0.132726 -0.56408,0.06636 -1.0618,0.232269 -0.49772,0.132726 -0.69681,0.331814 -0.29863,0.331813 -0.36499,0.763171 -0.0664,0.431357 -0.0664,0.862715 0,0.364995 0.0664,1.128166 0.0995,0.729989 0.23227,1.526341 0.13272,0.796353 0.33181,1.493161 0.19909,0.696808 0.39818,0.962259 0.19908,0.265451 0.49772,0.398176 0.29863,0.132726 0.63044,0.199088 0.365,0.03318 0.69681,0.06636 0.36499,0 0.63045,0 0.66362,0 1.5927,-0.03318 0.96226,-0.06636 1.89134,-0.199088 0.96226,-0.132726 1.79179,-0.364995 0.82953,-0.265451 1.26089,-0.696808 0.0664,-0.03318 0.0995,-0.331814 0.0332,-0.298632 0.0332,-0.630446 0,-0.331813 0,-0.630445 0,-0.298632 0,-0.364995 z"
           style="font-size:33.9777px;fill:#0064ff"
           id="path5777" />
      </g>
    </g>
    <g
       id="g1805"
       transform="translate(-38.091817,-125.88106)">
      <path
         sodipodi:nodetypes="cccczcczczzccc"
         inkscape:connector-curvature="0"
         id="path5082-5-1-8-7-6-17"
         d="m 147.52598,179.04852 c 0,0 1.82639,7.47965 2.16991,10.99422 0.73349,5.71332 -0.5597,12.20001 -1.59127,16.49136 -0.99381,2.90513 -4.77381,10.7049 -4.77381,10.7049 0,0 13.05448,-4.04984 17.06999,-4.62914 4.01551,-0.5793 6.6544,-0.14467 6.6544,-0.14467 l 3.03789,-10.99423 c 0,0 -4.31665,5.39067 -7.52238,6.50974 -3.20572,1.11906 -7.19102,2.90266 -10.41558,-0.43398 -0.64316,-2.82395 1.82401,-15.27512 1.30194,-18.95058 -0.52206,-3.67547 -2.1267,-8.02704 -2.45923,-10.56025 -0.33253,-2.5332 -0.14467,-4.48449 -0.14467,-4.48449 z"
         style="fill:#0064ff;fill-opacity:1;stroke:#0064ff;stroke-width:0.202525px;stroke-linecap:butt;stroke-linejoin:miter;stroke-opacity:1" />
      <path
         id="path4650-2-4-0"
         style="fill:#000000;fill-opacity:1;stroke:#000000;stroke-width:0.202525px;stroke-linecap:butt;stroke-linejoin:miter;stroke-opacity:1"
         d="m 155.64836,179.17769 c -6.25244,-0.10391 -15.10037,3.20343 -15.10037,3.20343 9.21513,10.37401 6.55191,26.7375 1.88051,30.81258 2.58096,-0.97517 9.10627,5.32321 8.82478,4.33979 -3.14842,-10.99937 -0.28939,-19.52904 -0.28939,-19.52904 4.23901,2.8658 16.53012,2.60237 17.06873,-7.78195 0.33826,-5.46415 -3.86533,-9.38271 -9.89655,-10.77196 -0.75391,-0.17365 -1.5945,-0.258 -2.48771,-0.27285 z m -1.47691,4.9351 c 4.14331,0.0228 8.1578,1.25244 7.64191,6.07974 -1.03178,9.65459 -12.72997,2.31458 -12.72997,2.31458 0,0 -2.4e-4,0.14456 -3.32745,-7.23315 0,0 4.2722,-1.18396 8.41551,-1.16117 z" />
      <path
         sodipodi:nodetypes="ccccszcc"
         inkscape:connector-curvature="0"
         id="path5082-5-1-8-8-8-0-0"
         d="m 147.52598,179.04852 c 0,0 1.82639,7.47965 2.16991,10.99422 0.1838,1.43168 0.1892,1.42871 0.15448,2.9108 0,0 -0.20458,0.46031 3.25317,1.70317 0.25049,-2.40417 0.5225,-4.87101 0.35353,-6.06057 -0.52206,-3.67547 -2.1267,-8.02704 -2.45923,-10.56025 -0.33253,-2.5332 -0.14467,-4.48449 -0.14467,-4.48449 z"
         style="fill:#0064ff;fill-opacity:1;stroke:#0064ff;stroke-width:0.202525px;stroke-linecap:butt;stroke-linejoin:miter;stroke-opacity:1" />
    </g>
  </g>
</svg>
